<?xml version="1.0" standalone="no"?>
<!DOCTYPE svg PUBLIC "-//W3C//DTD SVG 20010904//EN"
 "http://www.w3.org/TR/2001/REC-SVG-20010904/DTD/svg10.dtd">
<svg version="1.0" xmlns="http://www.w3.org/2000/svg"
 width="251.000000pt" height="251.000000pt" viewBox="0 0 251.000000 251.000000"
 preserveAspectRatio="xMidYMid meet">

<g transform="translate(0.000000,251.000000) scale(0.100000,-0.100000)"
fill="#000000" stroke="none">
<path d="M934 2486 c-423 -110 -770 -445 -900 -871 -26 -85 -28 -103 -31 -320
-4 -228 -4 -231 26 -348 68 -269 228 -513 445 -681 256 -198 513 -277 850
-263 341 15 613 139 852 390 145 151 241 318 301 517 28 94 28 99 28 355 0
255 -1 262 -28 350 -119 390 -435 717 -815 844 -127 43 -193 51 -420 51 -194
-1 -227 -3 -308 -24z m46 -761 l0 -295 270 0 270 0 0 295 0 295 185 0 185 0 0
-758 c0 -417 -2 -761 -4 -763 -2 -2 -86 -3 -185 -1 l-181 3 0 294 0 295 -270
0 -270 0 0 -297 0 -298 -185 0 -185 0 0 763 0 762 185 0 185 0 0 -295z"/>
</g>
</svg>
